{
  "asset": {
    "version": "2.0",
    "generator": "THREE.GLTFExporter"
  },
  "scenes": [
    {
      "nodes": [
        0
      ]
    }
  ],
  "scene": 0,
  "nodes": [
    {
      "children": [
        41,
        48
      ],
      "matrix": [
        0.01,
        0,
        0,
        0,
        0,
        0.01,
        0,
        0,
        0,
        0,
        0.01,
        0,
        0,
        0,
        0,
        1
      ]
    },
    {
      "matrix": [
        0.9285881884113452,
        -0.37111181110675545,
        4.163336586487212e-17,
        0,
        0.37111181110675545,
        0.9285881884113452,
        -1.9081957975189507e-17,
        0,
        -3.1578711802292765e-17,
        3.3169914596105504e-17,
        1,
        0,
        2.0635619163513184,
        -7.105427357601002e-15,
        -6.439293542825908e-15,
        1
      ],
      "name": "DIR_Jnt_Flng04_Mind_06"
    },
    {
      "matrix": [
        0.9285881884113452,
        -0.37111181110675545,
        4.163336433861497e-17,
        0,
        0.37111181110675545,
        0.9285881884113452,
        -2.0816682346377034e-17,
        0,
        -3.0934933681865976e-17,
        3.4780758590927487e-17,
        1,
        0,
        2.6696109771728516,
        -0.04888056963682175,
        -0.00582632701843977,
        1
      ],
      "name": "DIR_Jnt_Flng03_Mind_05",
      "children": [
        1
      ]
    },
    {
      "matrix": [
        0.9285881884113452,
        -0.37111181110675545,
        -1.3877787585196094e-17,
        0,
        0.37111181110675545,
        0.9285881884113452,
        -2.775557666305977e-17,
        0,
        2.3187171956635204e-17,
        2.062328976696591e-17,
        1,
        0,
        4.147688865661621,
        -0.05648114159703255,
        -0.011112390086054802,
        1
      ],
      "name": "DIR_Jnt_Flng02_Mind_04",
      "children": [
        2
      ]
    },
    {
      "matrix": [
        0.9286215870846484,
        -0.3710256264314613,
        0.0013901552181497735,
        0,
        0.3710256617990052,
        0.9286225819821635,
        0.0002419078133708286,
        0,
        -0.001380683526028797,
        0.00029114244223676434,
        0.9999990044740441,
        0,
        0,
        0,
        0,
        1
      ],
      "name": "DIR_Jnt_Flng01_Mind_03",
      "children": [
        3
      ]
    },
    {
      "matrix": [
        1.004907488822937,
        0,
        0,
        0,
        0,
        1.0143109560012817,
        0,
        0,
        0,
        0,
        1.004907488822937,
        0,
        6.823828220367432,
        0.07948452979326248,
        -0.09657715260982513,
        1
      ],
      "name": "DIR_Jnt_Flng01_Mind_03_scaleCompensation",
      "children": [
        4
      ]
    },
    {
      "matrix": [
        0.969534603002422,
        0.08824990196679154,
        0.20608590858099476,
        0,
        -0.06635689818479558,
        0.9778660326440982,
        -0.10656367885918808,
        0,
        -0.2139472287800001,
        0.09092481200287132,
        0.9675825831377223,
        0,
        1.749776005744934,
        0.8851904273033142,
        1.818572998046875,
        1
      ],
      "name": "DIR_Jnt_MtCarp_Mind_02",
      "children": [
        5
      ]
    },
    {
      "matrix": [
        0.8628603846963131,
        -0.5054423374844361,
        -5.551115063708766e-17,
        0,
        0.5054423374844361,
        0.8628603846963131,
        2.428612981731199e-17,
        0,
        3.562313457033981e-17,
        -4.9013225051410656e-17,
        1,
        0,
        2.384006977081299,
        0,
        -2.7755575615628914e-15,
        1
      ],
      "name": "DIR_Jnt_Flng04_Anelar_011"
    },
    {
      "matrix": [
        0.8628603846963131,
        -0.5054423374844361,
        -3.399515952364264e-27,
        0,
        0.5054423374844361,
        0.8628603846963131,
        -3.4694468878911864e-17,
        0,
        1.7536053450871543e-17,
        2.9936482761973894e-17,
        1,
        0,
        4.011185169219971,
        -0.04888056963682175,
        -0.00582632701843977,
        1
      ],
      "name": "DIR_Jnt_Flng03_Anelar_010",
      "children": [
        7
      ]
    },
    {
      "matrix": [
        0.8628603846963131,
        -0.5054423374844361,
        0,
        0,
        0.5054423374844361,
        0.8628603846963131,
        0,
        0,
        0,
        0,
        1,
        0,
        5.434194087982178,
        -0.05648114159703255,
        -0.011112390086054802,
        1
      ],
      "name": "DIR_Jnt_Flng02_Anelar_09",
      "children": [
        8
      ]
    },
    {
      "matrix": [
        0.9481745805736104,
        -0.3177498461904554,
        1.1449175498181842e-16,
        0,
        0.3177498461904554,
        0.9481745805736104,
        -1.9428903364454692e-16,
        0,
        -4.6822861201975256e-17,
        2.2059966052151845e-16,
        1,
        0,
        0,
        0,
        0,
        1
      ],
      "name": "DIR_Jnt_Flng01_Anelar_08",
      "children": [
        9
      ]
    },
    {
      "matrix": [
        1,
        0,
        0,
        0,
        0,
        1,
        0,
        0,
        0,
        0,
        1,
        0,
        8.010771751403809,
        0.08054140955209732,
        0.18196910619735718,
        1
      ],
      "name": "DIR_Jnt_Flng01_Anelar_08_scaleCompensation",
      "children": [
        10
      ]
    },
    {
      "matrix": [
        0.9863428977722866,
        0.13721333951777462,
        0.09110536467491126,
        0,
        -0.12290829181961112,
        0.9814052669437352,
        -0.14743559209729934,
        0,
        -0.10964141469423849,
        0.134224444396227,
        0.9848667720612622,
        0,
        1.9647749662399292,
        1.9674079418182373,
        0.8205010890960693,
        1
      ],
      "name": "DIR_Jnt_MtCarp_Anelar_07",
      "children": [
        11
      ]
    },
    {
      "matrix": [
        0.940485915033204,
        -0.33983267003652995,
        0,
        0,
        0.33983267003652995,
        0.940485915033204,
        0,
        0,
        0,
        0,
        1,
        0,
        2.79167103767395,
        3.552713678800501e-15,
        -3.885780586188048e-15,
        1
      ],
      "name": "DIR_Jnt_Flng04_Meio_016"
    },
    {
      "matrix": [
        0.940485915033204,
        -0.33983267003652995,
        -2.775557659259203e-17,
        0,
        0.33983267003652995,
        0.940485915033204,
        -3.32003984164812e-25,
        0,
        2.6103728961783896e-17,
        -9.43225138961889e-18,
        1,
        0,
        3.7605299949645996,
        0.044313911348581314,
        0.009050991386175156,
        1
      ],
      "name": "DIR_Jnt_Flng03_Meio_015",
      "children": [
        13
      ]
    },
    {
      "matrix": [
        0.940485915033204,
        -0.33983267003652995,
        2.775557659259203e-17,
        0,
        0.33983267003652995,
        0.940485915033204,
        3.32003984164812e-25,
        0,
        -2.6103728961783896e-17,
        9.43225138961889e-18,
        1,
        0,
        5.434194087982178,
        -0.05648114159703255,
        -0.011112390086054802,
        1
      ],
      "name": "DIR_Jnt_Flng02_Meio_014",
      "children": [
        14
      ]
    },
    {
      "matrix": [
        0.940485915033204,
        -0.33983267003652995,
        -2.0816681998013063e-17,
        0,
        0.33983267003652995,
        0.940485915033204,
        -3.053113436438203e-16,
        0,
        1.2333256531977653e-16,
        2.800668297721892e-16,
        1,
        0,
        8.929317474365234,
        -1.7763568394002505e-15,
        -6.661338147750939e-16,
        1
      ],
      "name": "DIR_Jnt_Flng01_Meio_013",
      "children": [
        15
      ]
    },
    {
      "matrix": [
        0.9918414240107386,
        0.11459361932960488,
        -0.05584704132979459,
        0,
        -0.12208976328434648,
        0.9799316633592681,
        -0.15756911133566212,
        0,
        0.036669869341496415,
        0.16310192382335545,
        0.9859275242773162,
        0,
        1.908769965171814,
        2.475348949432373,
        -0.2486637979745865,
        1
      ],
      "name": "DIR_Jnt_MtCarp_Meio_012",
      "children": [
        16
      ]
    },
    {
      "matrix": [
        0.9614707849750265,
        -0.2749071291172829,
        -2.775557680228506e-17,
        0,
        0.2749071291172829,
        0.9614707849750265,
        -5.551115110404047e-17,
        0,
        4.1946587399535107e-17,
        4.5742144091158664e-17,
        1,
        0,
        2.4577419757843018,
        1.7763568394002505e-15,
        6.078471059822732e-15,
        1
      ],
      "name": "DIR_Jnt_Flng04_Ind_021"
    },
    {
      "matrix": [
        0.9614707849750265,
        -0.2749071291172829,
        2.7755575463143453e-17,
        0,
        0.2749071291172829,
        0.9614707849750265,
        2.775557652079787e-17,
        0,
        -3.4316380786309724e-17,
        -1.9055970377315074e-17,
        1,
        0,
        3.9285809993743896,
        7.105427357601002e-15,
        1.3877787807814457e-15,
        1
      ],
      "name": "DIR_Jnt_Flng03_Ind_020",
      "children": [
        18
      ]
    },
    {
      "matrix": [
        0.9614707849750265,
        -0.2749071291172829,
        5.551115304159574e-17,
        0,
        0.2749071291172829,
        0.9614707849750265,
        -5.5511150926286907e-17,
        0,
        -3.811194075463015e-17,
        6.863276157261945e-17,
        1,
        0,
        5.11810302734375,
        -5.329070518200751e-15,
        -2.220446049250313e-16,
        1
      ],
      "name": "DIR_Jnt_Flng02_Ind_019",
      "children": [
        19
      ]
    },
    {
      "matrix": [
        0.9614707849750265,
        -0.2749071291172829,
        4.302114089614357e-16,
        0,
        0.2749071291172829,
        0.9614707849750265,
        9.436895926281884e-16,
        0,
        -6.730626977666372e-16,
        -7.890617900458975e-16,
        1,
        0,
        9.356157302856445,
        2.220446049250313e-15,
        -1.2212453270876722e-15,
        1
      ],
      "name": "DIR_Jnt_Flng01_Ind_018",
      "children": [
        20
      ]
    },
    {
      "matrix": [
        0.9702093457351599,
        0.05911869181058056,
        -0.2349442608934268,
        0,
        -0.12571746423020763,
        0.9518371852553772,
        -0.27964458148272303,
        0,
        0.2070964621515285,
        0.3008503831536972,
        0.930913584776049,
        0,
        1.4358739852905273,
        1.9642839431762695,
        -1.7755969762802124,
        1
      ],
      "name": "DIR_Jnt_MtCarp_Ind_017",
      "children": [
        21
      ]
    },
    {
      "matrix": [
        0.9300190885746935,
        -0.2663738357400883,
        -0.25319848838373593,
        0,
        0.27534616518768806,
        0.9613451457808658,
        -1.7225114702645872e-8,
        0,
        0.24341114231507732,
        -0.06971721678809562,
        0.9674143504621951,
        0,
        3.0009000301361084,
        -5.329070518200751e-15,
        -1.7763568394002505e-15,
        1
      ],
      "name": "DIR_Jnt_Flng03_Dedao_025"
    },
    {
      "matrix": [
        0.9300190885746935,
        -0.2663738357400883,
        -0.25319848838373593,
        0,
        0.27534616518768806,
        0.9613451457808658,
        -1.7225114702645872e-8,
        0,
        0.24341114231507732,
        -0.06971721678809562,
        0.9674143504621951,
        0,
        4.386229991912842,
        2.1649348980190553e-15,
        4.440892098500626e-16,
        1
      ],
      "name": "DIR_Jnt_Flng02_Dedao_024",
      "children": [
        23
      ]
    },
    {
      "matrix": [
        0.9300190885746935,
        -0.2663738357400883,
        -0.25319848838373593,
        0,
        0.27534616518768806,
        0.9613451457808658,
        -1.7225114702645872e-8,
        0,
        0.24341114231507732,
        -0.06971721678809562,
        0.9674143504621951,
        0,
        4.539090156555176,
        -0.30985701084136963,
        -0.08067914843559265,
        1
      ],
      "name": "DIR_Jnt_Flng01_Dedao_023",
      "children": [
        24
      ]
    },
    {
      "matrix": [
        0.5993692301101093,
        -0.1895083229978647,
        -0.7777166074552813,
        0,
        -0.8004711852489022,
        -0.1437810112867548,
        -0.5818701765682585,
        0,
        -0.0015516389505023098,
        0.9712948143112344,
        -0.23787386596402782,
        0,
        1.63190495967865,
        0.13164660334587097,
        -2.454106092453003,
        1
      ],
      "name": "DIR_Jnt_MtCarp_Dedao_022",
      "children": [
        25
      ]
    },
    {
      "matrix": [
        1,
        0,
        0,
        0,
        0,
        1,
        0,
        0,
        0,
        0,
        1,
        0,
        2.1589109897613525,
        0,
        -3.0814879110195774e-32,
        1
      ],
      "name": "DIR_Jnt_Carpal_01",
      "children": [
        6,
        12,
        17,
        22,
        26
      ]
    },
    {
      "matrix": [
        2.220446049250313e-16,
        1,
        2.220446049250313e-16,
        0,
        0,
        2.220446049250313e-16,
        -1,
        0,
        -1,
        2.220446049250313e-16,
        0,
        0,
        0,
        0.556412398815155,
        0,
        1
      ],
      "name": "DIR_Jnt_Root1_00",
      "children": [
        27
      ]
    },
    {
      "name": "_rootJoint",
      "children": [
        28
      ]
    },
    {
      "name": "Object_9",
      "mesh": 0
    },
    {
      "matrix": [
        1,
        0,
        0,
        0,
        0,
        1,
        8.894960955186828e-48,
        0,
        0,
        -8.894960955186828e-48,
        1,
        0,
        1.8488927466117464e-32,
        0,
        -1.3684555315672042e-48,
        1
      ],
      "name": "Object_8"
    },
    {
      "name": "MAO_LP3"
    },
    {
      "matrix": [
        0.10000000149011612,
        0,
        0,
        0,
        0,
        0.10000000149011612,
        0,
        0,
        0,
        0,
        0.10000000149011612,
        0,
        0,
        0,
        0,
        1
      ],
      "name": "group1",
      "children": [
        32
      ]
    },
    {
      "name": "Object_6",
      "children": [
        29,
        30,
        31,
        33
      ]
    },
    {
      "name": "hand",
      "children": [
        34
      ]
    },
    {
      "matrix": [
        10,
        0,
        0,
        0,
        0,
        10,
        0,
        0,
        0,
        0,
        10,
        0,
        0,
        0,
        0,
        1
      ],
      "name": "hand",
      "children": [
        35
      ]
    },
    {
      "name": "hand",
      "children": [
        36
      ]
    },
    {
      "name": "hand",
      "children": [
        37
      ]
    },
    {
      "matrix": [
        1,
        0,
        0,
        0,
        0,
        2.220446049250313e-16,
        1,
        0,
        0,
        -1,
        2.220446049250313e-16,
        0,
        0,
        0,
        0,
        1
      ],
      "name": "hand",
      "children": [
        38
      ]
    },
    {
      "matrix": [
        1,
        0,
        0,
        0,
        0,
        2.220446049250313e-16,
        -1,
        0,
        0,
        1,
        2.220446049250313e-16,
        0,
        0,
        0,
        0,
        1
      ],
      "name": "hand",
      "children": [
        39
      ]
    },
    {
      "matrix": [
        0.34027864773336636,
        0.006717475746807033,
        -0.9403006526725068,
        0,
        -0.5202197758301028,
        0.8343493342754427,
        -0.1822980340799186,
        0,
        0.7833146409534479,
        0.5511951232673568,
        0.2874058269316302,
        0,
        -61.97752758738174,
        -140.9118031863882,
        -78.93775556227291,
        1
      ],
      "name": "hand_animation_test 2",
      "children": [
        40
      ]
    },
    {
      "matrix": [
        3763.9870605468745,
        0,
        0,
        0,
        0,
        0.00028417311739695016,
        -3763.9870605468623,
        0,
        0,
        3763.9870605468623,
        0.00028417311739695016,
        0,
        -0.6878901816788954,
        -185.19085257800222,
        -0.26271416734923037,
        0.9999999999999998
      ],
      "name": "Lock 2",
      "mesh": 1
    },
    {
      "matrix": [
        3763.9870605468745,
        0,
        0,
        0,
        0,
        0.00028417311739695016,
        -3763.9870605468623,
        0,
        0,
        3763.9870605468623,
        0.00028417311739695016,
        0,
        -0.6878901816788954,
        -185.19085257800222,
        -0.26271416734923037,
        0.9999999999999998
      ],
      "name": "Lock001",
      "mesh": 2
    },
    {
      "matrix": [
        0.018831065469471095,
        0.09650733577700259,
        -0.2514102050954023,
        0,
        -7.492739146734491e-18,
        0.25202412319281187,
        0.09674299685505548,
        0,
        0.2692967825371989,
        -0.006748450320047671,
        0.017580314132385554,
        0,
        112,
        69.19,
        -8.139999999999986,
        1
      ],
      "name": "Group 2",
      "children": [
        42,
        43
      ]
    },
    {
      "matrix": [
        -0.060984943077765585,
        -5.811323644522304e-16,
        -0.99813868611421,
        0,
        0.012478329380636264,
        0.9999218519604134,
        -0.0007624092899823935,
        0,
        0.9980606835326545,
        -0.01250159878004016,
        -0.060980177224019716,
        0,
        979.4949389188644,
        42.536159033264504,
        -70.46333723432362,
        1
      ],
      "name": "Camera",
      "camera": 0
    },
    {
      "matrix": [
        -0.060984943077765585,
        -8.673617379884035e-19,
        -0.9981386861142102,
        0,
        0.012478329380636363,
        0.9999218519604134,
        -0.0007624092899818167,
        0,
        0.9980606835326548,
        -0.012501598780040226,
        -0.060980177224019716,
        0,
        979.8626702588283,
        7.792180522960633,
        -57.32179668200376,
        1
      ],
      "camera": 1
    },
    {
      "matrix": [
        1,
        0,
        0,
        0,
        0,
        1,
        0,
        0,
        0,
        0,
        1,
        0,
        0,
        1,
        0,
        1
      ],
      "name": "Default Ambient Light"
    },
    {
      "name": "Scene 1",
      "children": [
        44,
        45,
        46,
        47
      ]
    }
  ],
  "bufferViews": [
    {
      "buffer": 0,
      "byteOffset": 0,
      "byteLength": 16968,
      "target": 34962,
      "byteStride": 12
    },
    {
      "buffer": 0,
      "byteOffset": 16968,
      "byteLength": 16968,
      "target": 34962,
      "byteStride": 12
    },
    {
      "buffer": 0,
      "byteOffset": 33936,
      "byteLength": 11312,
      "target": 34962,
      "byteStride": 8
    },
    {
      "buffer": 0,
      "byteOffset": 45248,
      "byteLength": 11312,
      "target": 34962,
      "byteStride": 8
    },
    {
      "buffer": 0,
      "byteOffset": 56560,
      "byteLength": 11312,
      "target": 34962,
      "byteStride": 8
    },
    {
      "buffer": 0,
      "byteOffset": 67872,
      "byteLength": 11312,
      "target": 34962,
      "byteStride": 8
    },
    {
      "buffer": 0,
      "byteOffset": 79184,
      "byteLength": 11312,
      "target": 34962,
      "byteStride": 8
    },
    {
      "buffer": 0,
      "byteOffset": 90496,
      "byteLength": 26976,
      "target": 34963
    },
    {
      "buffer": 0,
      "byteOffset": 117472,
      "byteLength": 72144,
      "target": 34962,
      "byteStride": 12
    },
    {
      "buffer": 0,
      "byteOffset": 189616,
      "byteLength": 72144,
      "target": 34962,
      "byteStride": 12
    },
    {
      "buffer": 0,
      "byteOffset": 261760,
      "byteLength": 48096,
      "target": 34962,
      "byteStride": 8
    },
    {
      "buffer": 0,
      "byteOffset": 309856,
      "byteLength": 22464,
      "target": 34962,
      "byteStride": 12
    },
    {
      "buffer": 0,
      "byteOffset": 332320,
      "byteLength": 22464,
      "target": 34962,
      "byteStride": 12
    },
    {
      "buffer": 0,
      "byteOffset": 354784,
      "byteLength": 14976,
      "target": 34962,
      "byteStride": 8
    }
  ],
  "buffers": [
    {
      "byteLength": 369760,
      "uri": "data:application/octet-stream;base64,"
    }
  ],
  "accessors": [
    {
      "bufferView": 0,
      "componentType": 5126,
      "count": 1414,
      "max": [
        0.9986231923103333,
        0.9997434020042419,
        0.9997494220733643
      ],
      "min": [
        -0.9991153478622437,
        -0.9986038208007812,
        -0.999735951423645
      ],
      "type": "VEC3"
    },
    {
      "bufferView": 1,
      "componentType": 5126,
      "count": 1414,
      "max": [
        12.88304328918457,
        25.80600357055664,
        3.2696409225463867
      ],
      "min": [
        -5.965695381164551,
        0.44928836822509766,
        -5.360130786895752
      ],
      "type": "VEC3"
    },
    {
      "bufferView": 2,
      "componentType": 5126,
      "count": 1414,
      "max": [
        0.9975325465202332,
        0.9935657978057861
      ],
      "min": [
        0.006687000393867493,
        0.04212021827697754
      ],
      "type": "VEC2"
    },
    {
      "bufferView": 3,
      "componentType": 5126,
      "count": 1414,
      "max": [
        0.9975325465202332,
        0.9935657978057861
      ],
      "min": [
        0.006687000393867493,
        0.04212021827697754
      ],
      "type": "VEC2"
    },
    {
      "bufferView": 4,
      "componentType": 5126,
      "count": 1414,
      "max": [
        0.9975325465202332,
        0.9935657978057861
      ],
      "min": [
        0.006687000393867493,
        0.04212021827697754
      ],
      "type": "VEC2"
    },
    {
      "bufferView": 5,
      "componentType": 5126,
      "count": 1414,
      "max": [
        0.9975325465202332,
        0.9935657978057861
      ],
      "min": [
        0.006687000393867493,
        0.04212021827697754
      ],
      "type": "VEC2"
    },
    {
      "bufferView": 6,
      "componentType": 5126,
      "count": 1414,
      "max": [
        0.9975325465202332,
        0.9935657978057861
      ],
      "min": [
        0.006687000393867493,
        0.04212021827697754
      ],
      "type": "VEC2"
    },
    {
      "bufferView": 7,
      "componentType": 5125,
      "count": 6744,
      "max": [
        1413
      ],
      "min": [
        0
      ],
      "type": "SCALAR"
    },
    {
      "bufferView": 8,
      "componentType": 5126,
      "count": 6012,
      "max": [
        0.03282647579908371,
        0.014578879810869694,
        0.054024405777454376
      ],
      "min": [
        -0.03282647579908371,
        -0.014349914155900478,
        0.0000678375581628643
      ],
      "type": "VEC3"
    },
    {
      "bufferView": 9,
      "componentType": 5126,
      "count": 6012,
      "max": [
        1,
        1,
        1
      ],
      "min": [
        -1,
        -1,
        -1
      ],
      "type": "VEC3"
    },
    {
      "bufferView": 10,
      "componentType": 5126,
      "count": 6012,
      "max": [
        0.875,
        1
      ],
      "min": [
        0,
        -0.0000018782254755933536
      ],
      "type": "VEC2"
    },
    {
      "bufferView": 11,
      "componentType": 5126,
      "count": 1872,
      "max": [
        0.027646854519844055,
        0.004017064813524485,
        0.09886494278907776
      ],
      "min": [
        -0.027646854519844055,
        -0.0040170662105083466,
        0.05156815052032471
      ],
      "type": "VEC3"
    },
    {
      "bufferView": 12,
      "componentType": 5126,
      "count": 1872,
      "max": [
        1,
        1,
        1
      ],
      "min": [
        -1,
        -1,
        -1
      ],
      "type": "VEC3"
    },
    {
      "bufferView": 13,
      "componentType": 5126,
      "count": 1872,
      "max": [
        1,
        1
      ],
      "min": [
        8.881784197001252e-16,
        2.220446049250313e-16
      ],
      "type": "VEC2"
    }
  ],
  "meshes": [
    {
      "primitives": [
        {
          "mode": 4,
          "attributes": {
            "NORMAL": 0,
            "POSITION": 1,
            "TEXCOORD_0": 2,
            "TEXCOORD_1": 3,
            "TEXCOORD_2": 4,
            "TEXCOORD_3": 5,
            "TEXCOORD_4": 6
          },
          "extras": {
            "parameters": {
              "width": 18.84873867034912,
              "height": 25.356715202331543,
              "depth": 8.629771709442139,
              "subdivisions": 0
            },
            "type": "NonParametricGeometry"
          },
          "indices": 7
        }
      ]
    },
    {
      "primitives": [
        {
          "mode": 4,
          "attributes": {
            "POSITION": 8,
            "NORMAL": 9,
            "TEXCOORD_0": 10
          },
          "extras": {
            "parameters": {
              "width": 0.06565295159816742,
              "height": 0.028928793966770172,
              "depth": 0.05395656821929151,
              "subdivisions": 0
            },
            "type": "NonParametricGeometry"
          }
        }
      ]
    },
    {
      "primitives": [
        {
          "mode": 4,
          "attributes": {
            "POSITION": 11,
            "NORMAL": 12,
            "TEXCOORD_0": 13
          },
          "extras": {
            "parameters": {
              "width": 0.05529370903968811,
              "height": 0.008034131024032831,
              "depth": 0.04729679226875305,
              "subdivisions": 0
            },
            "type": "NonParametricGeometry"
          }
        }
      ]
    }
  ],
  "cameras": [
    {
      "type": "orthographic",
      "orthographic": {
        "xmag": 2.8030946336522162,
        "ymag": 1.4468056155986178,
        "zfar": 100000,
        "znear": 0
      },
      "name": "Camera"
    },
    {
      "type": "orthographic",
      "orthographic": {
        "xmag": 2.8030946336522162,
        "ymag": 1.4468056155986178,
        "zfar": 100000,
        "znear": 0
      }
    }
  ]
}